{"title":"The.Wiggles.Cold.Spaghetti.Western[2003]DVDRIP.XVID[Eng]-Bearmei","uid":3971415,"size":686929744,"categoryP":"video","categoryS":"movies","magnet":"?xt=urn:btih:c5fa6c01aaa5baa1a94234667c619d6d4ffcada7&amp;dn=The.Wiggles.Cold.Spaghetti.Western%5B2003%5DDVDRIP.XVID%5BEng%5D-Bearmei&amp;tr=udp%3A%2F%2Ftracker.openbittorrent.com%3A80&amp;tr=udp%3A%2F%2Fopen.demonii.com%3A1337&amp;tr=udp%3A%2F%2Ftracker.coppersurfer.tk%3A6969&amp;tr=udp%3A%2F%2Fexodus.desync.com%3A6969","seeders":0,"leechers":1,"uploader":"bearmeister","files":1,"time":1200023517,"description":"  Duration: 00:57:53.6, bitrate: 1582 kb/s\n  Stream #0.0: Video: mpeg4, 720x480, 29.97 fps\n  Stream #0.1: Audio: mp3, 44100 Hz, stereo, 96 kb/s\n\n\nWearing Holstein-patterned chaps and mixing kangaroo references with Mariachi music, the Wiggles take on a Western theme in this eccentric hybrid of Australian and American cowboy life. The central plot revolves around the town fair\\&amp;#039;s Country Cook-Off and the Wiggles\\&amp;#039; favorite chef Alfonso\\&amp;#039;s \\&quot;disaster pasta,\\&quot; a crushing culinary failure due to a missing ingredient. Greg, Anthony, Murray, and Jeff set off to find the all-important component aided by Foodman, Superhero of Sustenance. Along the way there is plenty of opportunity for singing (\\&quot;We\\&amp;#039;re cowboys, we eat fresh fruit when we can.\\&quot;). The highlight is the Spanish language \\&quot;Cielito Lindo\\&quot; sung--and danced--by a traditional Mariachi band. Despite a distinct lack of horses and cows, children ages 2 to 8 will enjoy the hour-long ride.\n\n","torrent":{"xt":"urn:btih:c5fa6c01aaa5baa1a94234667c619d6d4ffcada7","amp;dn":"The.Wiggles.Cold.Spaghetti.Western%5B2003%5DDVDRIP.XVID%5BEng%5D-Bearmei","amp;tr":["udp%3A%2F%2Ftracker.openbittorrent.com%3A80","udp%3A%2F%2Fopen.demonii.com%3A1337","udp%3A%2F%2Ftracker.coppersurfer.tk%3A6969","udp%3A%2F%2Fexodus.desync.com%3A6969"],"infoHash":"c5fa6c01aaa5baa1a94234667c619d6d4ffcada7","infoHashBuffer":{"type":"Buffer","data":[197,250,108,1,170,165,186,161,169,66,52,102,124,97,157,109,79,252,173,167]},"announce":[],"urlList":[]}}